<svg width="32" height="32" viewBox="0 0 32 32" fill="none" xmlns="http://www.w3.org/2000/svg">
<path d="M13.3333 25.3333H5.33333C4.97971 25.3333 4.64057 25.1929 4.39052 24.9428C4.14048 24.6928 4 24.3536 4 24V5.33333C4 4.97971 4.14048 4.64057 4.39052 4.39052C4.64057 4.14048 4.97971 4 5.33333 4H13.3333C14.0406 4 14.7189 4.28095 15.219 4.78105C15.719 5.28115 16 5.95942 16 6.66667C16 5.95942 16.281 5.28115 16.781 4.78105C17.2811 4.28095 17.9594 4 18.6667 4H26.6667C27.0203 4 27.3594 4.14048 27.6095 4.39052C27.8595 4.64057 28 4.97971 28 5.33333V24C28 24.3536 27.8595 24.6928 27.6095 24.9428C27.3594 25.1929 27.0203 25.3333 26.6667 25.3333H18.6667C17.9594 25.3333 17.2811 25.6143 16.781 26.1144C16.281 26.6145 16 27.2928 16 28C16 27.2928 15.719 26.6145 15.219 26.1144C14.7189 25.6143 14.0406 25.3333 13.3333 25.3333Z" stroke="#9B51E0" stroke-width="2.28571" stroke-linecap="round" stroke-linejoin="round"/>
<path d="M16 6.66663V28" stroke="#9B51E0" stroke-width="2.28571" stroke-linecap="round" stroke-linejoin="round"/>
<path d="M9.33331 9.33337H10.6666" stroke="#9B51E0" stroke-width="2.28571" stroke-linecap="round" stroke-linejoin="round"/>
<path d="M9.33331 14.6666H10.6666" stroke="#9B51E0" stroke-width="2.28571" stroke-linecap="round" stroke-linejoin="round"/>
<path d="M21.3333 9.33337H22.6666" stroke="#9B51E0" stroke-width="2.28571" stroke-linecap="round" stroke-linejoin="round"/>
<path d="M21.3333 14.6666H22.6666" stroke="#9B51E0" stroke-width="2.28571" stroke-linecap="round" stroke-linejoin="round"/>
<path d="M21.3333 20H22.6666" stroke="#9B51E0" stroke-width="2.28571" stroke-linecap="round" stroke-linejoin="round"/>
</svg>
