
<svg width="1500" height="1200" viewBox="0 0 1500 1200" fill="none" xmlns="http://www.w3.org/2000/svg">
<path d="M544.696 422.412L557.837 346.849H623.544L607.117 422.412H544.696Z" fill="#6315CB"/>
<path d="M557.838 422.412L570.98 346.849H636.686L620.26 422.412H557.838Z" fill="#6F1DDD"/>
<path d="M570.98 346.849H636.687L631.924 368.757H567.17L570.98 346.849Z" fill="#6315CB"/>
<path d="M396.981 124.559C396.915 123.967 397.379 123.449 397.975 123.449H750.778C751.288 123.449 751.716 123.832 751.772 124.338L777.833 358.882C777.898 359.475 777.435 359.993 776.839 359.993H424.035C423.526 359.993 423.098 359.609 423.041 359.103L396.981 124.559Z" fill="#6315CB"/>
<path d="M410.12 124.558C410.054 123.966 410.518 123.448 411.114 123.448H763.917C764.427 123.448 764.855 123.831 764.911 124.338L790.972 358.881C791.037 359.474 790.574 359.992 789.978 359.992H437.174C436.665 359.992 436.237 359.609 436.18 359.102L410.12 124.558Z" fill="#6F1DDD"/>
<rect x="515.127" y="419.129" width="210.261" height="13.1413" fill="#6F1DDD"/>
<rect x="462.563" y="419.129" width="52.5653" height="13.1413" fill="#6315CB"/>
<path d="M426.115 135.047C426.049 134.455 426.513 133.937 427.109 133.937H755.577C756.087 133.937 756.515 134.32 756.571 134.827L780.139 347.253C780.204 347.846 779.741 348.364 779.145 348.364H450.676C450.167 348.364 449.738 347.98 449.682 347.474L426.115 135.047Z" fill="#FFFAEE"/>
<path d="M426.612 134.992C426.579 134.696 426.811 134.437 427.109 134.437H584.481H755.577C755.832 134.437 756.046 134.629 756.074 134.882L767.87 241.205L779.642 347.309C779.675 347.605 779.443 347.864 779.145 347.864H612.45H450.676C450.421 347.864 450.207 347.672 450.179 347.419L426.612 134.992Z" stroke="#FEECB5"/>
<path d="M597.3 326.736L575.868 155.561H466.325L448.134 179.336L463.943 326.736H597.3Z" fill="#FEECB5"/>
<path d="M448.134 178.792L466.474 155.561V178.792H448.134Z" fill="#FFE38F"/>
<path d="M467.697 192.24H534.332" stroke="white"/>
<path d="M468.919 202.02H539.223" stroke="white"/>
<path d="M470.141 211.802H560.008" stroke="white"/>
<path d="M471.364 221.583H561.23" stroke="white"/>
<path d="M472.588 231.366H562.455" stroke="white"/>
<path d="M473.81 241.146H563.677" stroke="white"/>
<path d="M475.033 250.926H564.899" stroke="white"/>
<path d="M476.255 260.709H566.122" stroke="white"/>
<path d="M477.477 270.489H567.344" stroke="white"/>
<path d="M478.702 280.272H568.568" stroke="white"/>
<path d="M479.924 290.052H569.791" stroke="white"/>
<path d="M481.146 299.835H571.013" stroke="white"/>
<path d="M482.369 309.616H572.235" stroke="white"/>
<path d="M714.062 234.157L702.687 143.259H644.547H633.427L643.284 234.157H714.062Z" fill="#FEECB5"/>
<path d="M649.946 154.988H688.232" stroke="white"/>
<path d="M651.02 160.853H689.139" stroke="white"/>
<path d="M645.484 166.227H697.119" stroke="white"/>
<path d="M646.186 171.847H697.82" stroke="white"/>
<path d="M646.891 177.469H698.525" stroke="white"/>
<path d="M647.592 183.086H699.226" stroke="white"/>
<path d="M648.293 188.708H699.927" stroke="white"/>
<path d="M648.999 194.33H700.633" stroke="white"/>
<path d="M649.7 199.948H701.334" stroke="white"/>
<path d="M650.401 205.567H702.035" stroke="white"/>
<path d="M651.106 211.189H702.741" stroke="white"/>
<path d="M651.807 216.807H703.442" stroke="white"/>
<path d="M652.509 222.429H704.143" stroke="white"/>
<path d="M757.181 341.371L745.805 250.472H687.666H676.545L686.402 341.371H757.181Z" fill="#FEECB5"/>
<path d="M693.067 262.202H731.353" stroke="white"/>
<path d="M694.141 268.068H732.26" stroke="white"/>
<path d="M688.605 273.442H740.24" stroke="white"/>
<path d="M689.306 279.061H740.941" stroke="white"/>
<path d="M690.012 284.683H741.646" stroke="white"/>
<path d="M690.713 290.301H742.347" stroke="white"/>
<path d="M691.414 295.923H743.048" stroke="white"/>
<path d="M692.12 301.545H743.754" stroke="white"/>
<path d="M692.821 307.162H744.455" stroke="white"/>
<path d="M693.522 312.782H745.156" stroke="white"/>
<path d="M694.227 318.404H745.862" stroke="white"/>
<path d="M694.928 324.021H746.563" stroke="white"/>
<path d="M695.629 329.643H747.264" stroke="white"/>
<path d="M1056.99 1061.59C1066.36 1054.56 1107.34 1000.12 1127.83 973.778H1147.14L1220.9 1061.59L1297 1087.93H1200.41L1136.02 1011.83L1065.77 1087.93H966.258C992.601 1082.08 1047.63 1068.61 1056.99 1061.59Z" fill="#34007A"/>
<path d="M1129.32 991.317V692.682H1145.71V991.317H1129.32Z" fill="#34007A"/>
<path d="M1300.59 311.073C1300.59 311.073 1237.57 545.304 1212.6 636.4L1025.37 623.582L946.909 696.12C1002.78 697.245 1134.09 696.12 1212.6 696.12C1291.06 696.12 1300.43 578.879 1323.61 497.906C1346.79 416.933 1386.19 316.134 1300.59 311.073Z" fill="#B28AE9"/>
<path d="M1306.09 497.94C1329.27 417.041 1365.85 333.216 1311.49 313.281C1305.84 311.209 1304.09 311.656 1300.59 311.073C1310.5 308.16 1341.96 306.412 1352.04 352.995C1365.52 415.373 1311.57 553.737 1280.27 650.467C1270.13 681.822 1256.31 726.31 1219.71 726.31H946.909V695.973C1002.78 697.097 1134.07 695.973 1212.58 695.973C1262.36 695.973 1278.47 594.315 1306.09 497.94Z" fill="#9D75D6"/>
<path d="M336.257 439.428L146.303 1087.37" stroke="#34007A" stroke-width="5"/>
<path d="M463.281 439.428L270.996 1087.37" stroke="#34007A" stroke-width="5"/>
<path d="M789.583 438.428L980.703 1087.2" stroke="#34007A" stroke-width="5"/>
<path d="M909.616 438.428L1099.57 1086.2" stroke="#34007A" stroke-width="5"/>
<path d="M235.458 431.383C230.487 431.383 226.458 435.412 226.458 440.383C226.458 445.353 230.487 449.383 235.458 449.383V431.383ZM1030.69 449.383C1035.66 449.383 1039.69 445.353 1039.69 440.383C1039.69 435.412 1035.66 431.383 1030.69 431.383V449.383ZM235.458 449.383H1030.69V431.383H235.458V449.383Z" fill="#4A0B9F"/>
<path d="M1066.2 940.306L1055.21 903.027L971.978 909.911L982.78 956.034L1066.2 940.306Z" fill="#FECBB5"/>
<path d="M1055.21 903.026L971.978 909.91L975.409 924.558L1058.29 913.474L1055.21 903.026Z" fill="#FFAAA9"/>
<path d="M840.939 1003.86L848.829 965.805L772.192 932.623L759.964 978.388L840.939 1003.86Z" fill="#FECBB5"/>
<path d="M848.828 965.805L772.192 932.622L768.308 947.156L846.617 976.47L848.828 965.805Z" fill="#FFAAA9"/>
<path d="M978.211 939.812L1063.17 928.699L1091.3 1022.62L874.218 1088.7C865.401 1065.23 874.119 1039.92 912.368 1020.22C977.939 986.444 982.405 964.08 978.211 939.812Z" fill="#B28AE9"/>
<path d="M978.212 939.811L1063.17 928.699L1064.37 932.686L979.005 945.408C978.808 943.55 978.536 941.686 978.212 939.811Z" fill="#9D75D6"/>
<path d="M940.618 1004.63L948.393 1015.18" stroke="white" stroke-width="2"/>
<path d="M954.24 993.941L964.526 1005.25" stroke="white" stroke-width="2"/>
<path d="M1073.23 966.235C1050.75 978.452 1006.75 1002.73 1013.75 1037.7" stroke="white" stroke-width="2"/>
<path d="M1091.3 1022.62L874.219 1088.7C871.981 1082.74 870.873 1076.67 871.09 1070.6L1083.85 997.724L1091.3 1022.62Z" fill="#9D75D6"/>
<path d="M763.584 961.93L843.742 992.2L824.254 1088.29L601.665 1044.17C604.959 1019.32 624.582 1001.11 667.603 1001.78C741.352 1002.92 755.837 985.308 763.584 961.93Z" fill="#B28AE9"/>
<path d="M763.585 961.93L843.742 992.2L842.915 996.279L761.644 967.239C762.348 965.508 762.986 963.736 763.585 961.93Z" fill="#9D75D6"/>
<path d="M699.869 1001.35L701.746 1014.33" stroke="white" stroke-width="2"/>
<path d="M716.918 998.355L720.653 1013.18" stroke="white" stroke-width="2"/>
<path d="M834.911 1030.04C809.322 1030.21 759.078 1030.87 748.753 1065.01" stroke="white" stroke-width="2"/>
<path d="M824.254 1088.28L601.665 1044.17C602.501 1037.86 604.389 1031.98 607.444 1026.73L829.42 1062.82L824.254 1088.28Z" fill="#9D75D6"/>
<path d="M782.712 378.458C792.034 380.026 802.132 383.358 806.016 384.829C810.118 386.248 814.872 385.42 816.736 384.829L818.134 424.035H784.576C775.721 424.035 739.833 426.485 736.57 423.055C733.307 419.624 736.57 414.723 739.833 413.253C739.833 410.803 741.231 405.902 744.493 403.452C746.358 394.14 750.086 391.69 755.679 388.749C761.739 376.497 771.06 376.497 782.712 378.458Z" fill="#FECBB5"/>
<path d="M744.963 402.471H766.868" stroke="#FFAAA9"/>
<path d="M739.835 414.234H761.74" stroke="#FFAAA9"/>
<path d="M766.114 416.611L788.325 341.738C788.481 341.21 788.181 340.655 787.654 340.496L782.17 338.848C781.643 338.69 781.086 338.987 780.926 339.514L758.124 414.206L766.114 416.611Z" fill="#B28AE9"/>
<path d="M766.111 416.613L786.732 346.995C786.88 346.494 786.603 345.966 786.106 345.805C785.592 345.637 785.04 345.927 784.885 346.446L764.167 416.028L766.111 416.613Z" fill="#AD80EB"/>
<path d="M785.169 345.497L764.169 416.026" stroke="#9D6BE2"/>
<path d="M779.944 343.431L758.122 414.209L759.925 414.751L781.705 343.973C781.856 343.485 781.58 342.968 781.091 342.82C780.606 342.674 780.094 342.946 779.944 343.431Z" fill="#AD80EB"/>
<path d="M781.382 345.067L759.927 414.749" stroke="#9D6BE2"/>
<path d="M787.645 340.492L782.16 338.853C781.634 338.695 781.08 338.991 780.918 339.515L779.322 344.682L786.791 346.965L788.318 341.73C788.472 341.203 788.171 340.65 787.645 340.492Z" fill="#4A0B9E"/>
<path d="M758.114 414.179L766.124 416.595L759.401 425.08L758.114 414.179Z" fill="#FFEEBC"/>
<path d="M759.675 423.88L764.237 416.027" stroke="#FAE197"/>
<path d="M759.592 423.544L759.82 414.694" stroke="#FAE197"/>
<path d="M759.395 425.079L762.74 420.861L758.739 419.647L759.395 425.079Z" fill="#4A0B9E"/>
<path d="M779.125 345.342L786.594 347.624L786.948 346.411L779.523 344.051L779.125 345.342Z" fill="#FFEEBC"/>
<path d="M782.714 378.458C792.036 380.026 802.134 383.358 806.018 384.829C810.12 386.248 814.874 385.42 816.738 384.829L817.079 394.39C815.411 396.757 809.467 402.471 799.026 406.392C785.976 411.293 774.324 390.71 769.197 393.16C764.07 395.61 751.486 405.902 751.486 400.511C751.486 396.198 754.283 390.873 755.681 388.749C761.74 376.497 771.062 376.497 782.714 378.458Z" fill="#FECBB5"/>
<path d="M756.37 388.568C754.972 390.692 751.486 396.197 751.486 400.51C751.486 405.901 763.48 394.515 768.607 392.065" stroke="#FFAAA9"/>
<path d="M769.197 393.16C764.07 395.61 751.486 405.902 751.486 400.511C753.313 400.415 759.414 398.358 769.197 390.899C773.851 388.749 783.414 408.483 799.026 406.392C785.976 411.293 774.324 390.71 769.197 393.16Z" fill="#FFAAA9"/>
<path d="M784.577 424.035C775.721 424.035 739.833 426.485 736.571 423.055C747.767 424.074 792.116 421.853 812.891 420.616L811.143 385.613C813.529 385.61 815.636 385.178 816.737 384.829L818.135 424.035H784.577Z" fill="#FFAAA9"/>
<path d="M816 424.799V376.545L974 356.001V432.001L816 424.799Z" fill="#1576C1"/>
<circle cx="885.726" cy="375.751" r="4.74413" stroke="#59A2D9"/>
<circle cx="883.396" cy="375.75" r="2.91341" fill="#59A2D9"/>
<circle cx="855.427" cy="389.735" r="4.74413" stroke="#59A2D9"/>
<circle cx="853.096" cy="389.735" r="2.91341" fill="#59A2D9"/>
<circle cx="864.75" cy="409.546" r="4.74413" stroke="#59A2D9"/>
<circle cx="862.419" cy="409.546" r="2.91341" fill="#59A2D9"/>
<circle cx="830.954" cy="411.877" r="4.74413" stroke="#59A2D9"/>
<circle cx="828.623" cy="411.878" r="2.91341" fill="#59A2D9"/>
<circle cx="826.293" cy="383.908" r="4.74413" stroke="#59A2D9"/>
<circle cx="823.962" cy="383.909" r="2.91341" fill="#59A2D9"/>
<path d="M888.938 367.169L974 356.001V415.395L947.379 431.001L871 427.485L888.938 367.169Z" fill="#0B6DB9" fill-opacity="0.76"/>
<path d="M1119.24 260.343C1100.2 250 944 250.001 944 250.001L973.599 515.347C973.599 515.347 1119.24 533.261 1199 542.001C1133.14 278.652 1145.38 274.537 1119.24 260.343Z" fill="#1576C1"/>
<circle cx="1060.53" cy="375.75" r="4.74413" stroke="#59A2D9"/>
<circle cx="1058.2" cy="375.75" r="2.91341" fill="#59A2D9"/>
<circle cx="1083.84" cy="385.073" r="4.74413" stroke="#59A2D9"/>
<circle cx="1081.51" cy="385.073" r="2.91341" fill="#59A2D9"/>
<circle cx="1060.53" cy="401.388" r="4.74413" stroke="#59A2D9"/>
<circle cx="1058.2" cy="401.389" r="2.91341" fill="#59A2D9"/>
<circle cx="1071.02" cy="429.357" r="4.74413" stroke="#59A2D9"/>
<circle cx="1068.69" cy="429.357" r="2.91341" fill="#59A2D9"/>
<circle cx="1089.67" cy="409.545" r="4.74413" stroke="#59A2D9"/>
<circle cx="1087.34" cy="409.546" r="2.91341" fill="#59A2D9"/>
<circle cx="1108.31" cy="386.238" r="4.74413" stroke="#59A2D9"/>
<circle cx="1105.98" cy="386.238" r="2.91341" fill="#59A2D9"/>
<circle cx="1102.48" cy="353.608" r="4.74413" stroke="#59A2D9"/>
<circle cx="1100.15" cy="353.608" r="2.91341" fill="#59A2D9"/>
<circle cx="1071.02" cy="347.781" r="4.74413" stroke="#59A2D9"/>
<circle cx="1068.69" cy="347.781" r="2.91341" fill="#59A2D9"/>
<circle cx="994.106" cy="263.875" r="4.74413" stroke="#59A2D9"/>
<circle cx="991.775" cy="263.875" r="2.91341" fill="#59A2D9"/>
<circle cx="1015.08" cy="276.694" r="4.74413" stroke="#59A2D9"/>
<circle cx="1012.75" cy="276.694" r="2.91341" fill="#59A2D9"/>
<circle cx="980.122" cy="309.324" r="4.74413" stroke="#59A2D9"/>
<circle cx="977.79" cy="309.324" r="2.91341" fill="#59A2D9"/>
<circle cx="1137.45" cy="355.939" r="4.74413" stroke="#59A2D9"/>
<circle cx="1135.11" cy="355.94" r="2.91341" fill="#59A2D9"/>
<circle cx="1109.48" cy="327.969" r="4.74413" stroke="#59A2D9"/>
<circle cx="1107.15" cy="327.969" r="2.91341" fill="#59A2D9"/>
<circle cx="1136.28" cy="325.639" r="4.74413" stroke="#59A2D9"/>
<circle cx="1133.95" cy="325.64" r="2.91341" fill="#59A2D9"/>
<circle cx="1125.79" cy="300.001" r="4.74413" stroke="#59A2D9"/>
<circle cx="1123.46" cy="300" r="2.91341" fill="#59A2D9"/>
<circle cx="1125.79" cy="274.363" r="4.74413" stroke="#59A2D9"/>
<circle cx="1123.46" cy="274.363" r="2.91341" fill="#59A2D9"/>
<circle cx="1097.82" cy="262.71" r="4.74413" stroke="#59A2D9"/>
<circle cx="1095.49" cy="262.71" r="2.91341" fill="#59A2D9"/>
<circle cx="1103.65" cy="282.521" r="4.74413" stroke="#59A2D9"/>
<circle cx="1101.32" cy="282.52" r="2.91341" fill="#59A2D9"/>
<circle cx="1078.01" cy="273.198" r="4.74413" stroke="#59A2D9"/>
<circle cx="1075.68" cy="273.198" r="2.91341" fill="#59A2D9"/>
<circle cx="1050.04" cy="266.206" r="4.74413" stroke="#59A2D9"/>
<circle cx="1047.71" cy="266.206" r="2.91341" fill="#59A2D9"/>
<circle cx="1087.34" cy="300.001" r="4.74413" stroke="#59A2D9"/>
<circle cx="1085" cy="300" r="2.91341" fill="#59A2D9"/>
<circle cx="1083.84" cy="323.309" r="4.74413" stroke="#59A2D9"/>
<circle cx="1081.51" cy="323.308" r="2.91341" fill="#59A2D9"/>
<circle cx="1138.61" cy="383.907" r="4.74413" stroke="#59A2D9"/>
<circle cx="1136.28" cy="383.908" r="2.91341" fill="#59A2D9"/>
<circle cx="1161.92" cy="415.372" r="4.74413" stroke="#59A2D9"/>
<circle cx="1159.59" cy="415.373" r="2.91341" fill="#59A2D9"/>
<circle cx="1126.96" cy="409.545" r="4.74413" stroke="#59A2D9"/>
<circle cx="1124.63" cy="409.546" r="2.91341" fill="#59A2D9"/>
<circle cx="1144.44" cy="430.522" r="4.74413" stroke="#59A2D9"/>
<circle cx="1142.11" cy="430.522" r="2.91341" fill="#59A2D9"/>
<circle cx="1109.48" cy="432.854" r="4.74413" stroke="#59A2D9"/>
<circle cx="1107.15" cy="432.854" r="2.91341" fill="#59A2D9"/>
<circle cx="1036.06" cy="387.404" r="4.74413" stroke="#59A2D9"/>
<circle cx="1033.73" cy="387.404" r="2.91341" fill="#59A2D9"/>
<circle cx="1005.76" cy="397.893" r="4.74413" stroke="#59A2D9"/>
<circle cx="1003.43" cy="397.893" r="2.91341" fill="#59A2D9"/>
<circle cx="1031.4" cy="415.372" r="4.74413" stroke="#59A2D9"/>
<circle cx="1029.07" cy="415.373" r="2.91341" fill="#59A2D9"/>
<circle cx="1050.04" cy="443.341" r="4.74413" stroke="#59A2D9"/>
<circle cx="1047.71" cy="443.342" r="2.91341" fill="#59A2D9"/>
<circle cx="1086.17" cy="459.656" r="4.74413" stroke="#59A2D9"/>
<circle cx="1083.84" cy="459.655" r="2.91341" fill="#59A2D9"/>
<circle cx="1119.97" cy="465.483" r="4.74413" stroke="#59A2D9"/>
<circle cx="1117.63" cy="465.483" r="2.91341" fill="#59A2D9"/>
<circle cx="1152.6" cy="466.648" r="4.74413" stroke="#59A2D9"/>
<circle cx="1150.27" cy="466.648" r="2.91341" fill="#59A2D9"/>
<circle cx="1175.9" cy="486.459" r="4.74413" stroke="#59A2D9"/>
<circle cx="1173.57" cy="486.459" r="2.91341" fill="#59A2D9"/>
<circle cx="1150.27" cy="501.609" r="4.74413" stroke="#59A2D9"/>
<circle cx="1147.93" cy="501.609" r="2.91341" fill="#59A2D9"/>
<circle cx="1109.48" cy="491.12" r="4.74413" stroke="#59A2D9"/>
<circle cx="1107.15" cy="491.12" r="2.91341" fill="#59A2D9"/>
<circle cx="1130.45" cy="519.09" r="4.74413" stroke="#59A2D9"/>
<circle cx="1128.12" cy="519.089" r="2.91341" fill="#59A2D9"/>
<circle cx="1178.23" cy="521.42" r="4.74413" stroke="#59A2D9"/>
<circle cx="1175.9" cy="521.42" r="2.91341" fill="#59A2D9"/>
<circle cx="1073.35" cy="486.459" r="4.74413" stroke="#59A2D9"/>
<circle cx="1071.02" cy="486.459" r="2.91341" fill="#59A2D9"/>
<circle cx="1041.89" cy="471.31" r="4.74413" stroke="#59A2D9"/>
<circle cx="1039.56" cy="471.311" r="2.91341" fill="#59A2D9"/>
<circle cx="1020.91" cy="443.341" r="4.74413" stroke="#59A2D9"/>
<circle cx="1018.58" cy="443.342" r="2.91341" fill="#59A2D9"/>
<circle cx="998.766" cy="430.522" r="4.74413" stroke="#59A2D9"/>
<circle cx="996.435" cy="430.522" r="2.91341" fill="#59A2D9"/>
<circle cx="973.129" cy="413.042" r="4.74413" stroke="#59A2D9"/>
<circle cx="970.798" cy="413.042" r="2.91341" fill="#59A2D9"/>
<circle cx="983.617" cy="460.821" r="4.74413" stroke="#59A2D9"/>
<circle cx="981.286" cy="460.822" r="2.91341" fill="#59A2D9"/>
<circle cx="1009.25" cy="485.295" r="4.74413" stroke="#59A2D9"/>
<circle cx="1006.92" cy="485.295" r="2.91341" fill="#59A2D9"/>
<circle cx="983.617" cy="499.278" r="4.74413" stroke="#59A2D9"/>
<circle cx="981.286" cy="499.279" r="2.91341" fill="#59A2D9"/>
<circle cx="1041.89" cy="502.774" r="4.74413" stroke="#59A2D9"/>
<circle cx="1039.56" cy="502.775" r="2.91341" fill="#59A2D9"/>
<circle cx="1082.67" cy="515.594" r="4.74413" stroke="#59A2D9"/>
<circle cx="1080.34" cy="515.593" r="2.91341" fill="#59A2D9"/>
<path d="M1062 345.001L960 399.782L963.708 433.001L1062 345.001Z" fill="#086BB7" fill-opacity="0.76"/>
<path d="M1031.87 190.001L1063 252.578C1053.29 259.366 1025.13 257.077 1008.97 254.047C1007.01 253.681 1005.23 253.303 1003.68 252.93C999.454 251.911 996.935 250.921 997.222 250.261C998.983 246.205 1008.38 238.672 989 207.383L1031.87 190.001Z" fill="#FECBB5"/>
<path d="M989 207.473L1031.81 190.001L1039 204.561C1030.06 215.627 1009.86 238.807 1000.59 243.001C1001.92 236.96 1000.8 226.66 989 207.473Z" fill="#FFAAA9"/>
<path d="M881.099 509.001C916.268 509.001 1115.9 532.296 1155.55 532.296L1208 671.039L965.192 669.123L864.201 972.001L743 929.486C844.389 531.714 845.93 509.001 881.099 509.001Z" fill="#E9AF00"/>
<circle cx="825.128" cy="826.746" r="21.5592" fill="#F8D463"/>
<path d="M808.813 743.422C820.72 743.422 830.372 733.77 830.372 721.863C830.372 709.956 820.72 700.304 808.813 700.304C806.034 700.304 803.377 700.83 800.937 701.788L792.286 735.708C796.241 740.424 802.177 743.422 808.813 743.422Z" fill="#F8D463"/>
<circle cx="846.105" cy="621.642" r="21.5592" fill="#F8D463"/>
<circle cx="870.578" cy="757.99" r="21.5592" fill="#F8D463"/>
<path d="M900.877 831.99C888.97 831.99 879.318 841.642 879.318 853.549C879.318 864.026 886.791 872.757 896.697 874.703L910.2 834.104C907.378 832.749 904.216 831.99 900.877 831.99Z" fill="#F8D463"/>
<circle cx="846.105" cy="931.629" r="21.5592" fill="#F8D463"/>
<path d="M761.032 898.415C772.939 898.415 782.591 888.763 782.591 876.856C782.591 865.255 773.428 855.794 761.945 855.316L751.562 896.229C754.421 897.629 757.635 898.415 761.032 898.415Z" fill="#F8D463"/>
<path d="M881.134 509.001C916.299 509.001 1115.91 532.34 1155.55 532.34L1208 671.339L965.218 669.42L901.13 862.001L824 614.609C850.738 517.473 859.677 509.001 881.134 509.001Z" fill="#CD9A00" fill-opacity="0.76"/>
<path d="M1230.56 664.332C1220.05 628.248 1206.52 565.23 1197.28 534.544L975.201 511.179C875.019 500.787 861.446 511.179 845.829 526.978C816.02 557.132 819.558 564.808 934.168 918.001L1070.16 902.793L1001.12 687.031C1120.02 687.605 1239.2 694.015 1230.56 664.332Z" fill="#E9AF00"/>
<path d="M956.313 180.057C934.089 211.435 959.144 213.766 949.823 241.734C955.626 242.994 971.957 244.041 980.12 245.813C985.364 230.081 994.376 231.829 983.044 216.319C976.966 208 989.066 188.439 987.25 182.326C985.435 176.213 982.726 185.792 978.525 184.88C973.166 174.82 968.392 185.221 967.119 182.404C965.847 179.586 964.63 173.603 956.313 180.057Z" fill="#FECBB5"/>
<path d="M957.23 179.375C956.934 179.585 956.628 179.812 956.312 180.058C956.584 179.828 956.893 179.596 957.23 179.375C964.722 174.053 965.894 179.693 967.118 182.404C968.391 185.222 973.165 174.821 978.523 184.88C982.725 185.792 985.434 176.214 987.249 182.327C989.065 188.44 976.965 208.001 983.043 216.319C994.375 231.829 985.363 230.081 980.119 245.813C971.956 244.041 955.625 242.994 949.821 241.734C950.977 238.268 951.604 235.195 951.859 232.412L983.043 235.325C990.026 225.419 982.719 227.167 978.523 219.01C973.279 208.813 972.545 203.86 970.215 198.616C968.274 194.251 970.215 185.797 967.118 183.467C964.905 176.383 960.067 177.509 957.23 179.375Z" fill="#FFAAA9"/>
<path d="M991.016 225.523C1052.82 230.277 1044.92 175.609 1042.33 148.026C1040.2 125.301 988.78 103.014 977.656 134.042C961.278 179.726 974.743 224.272 991.016 225.523Z" fill="#FECBB5"/>
<path d="M1042.33 148.026C1040.2 125.301 988.78 103.014 977.656 134.042C975.133 141.078 973.319 148.086 972.113 154.914C977.307 156.468 990.841 157.827 1003.43 150.835C1007.51 148.505 1000.51 164.237 1003.43 169.481C1006.34 174.725 1012.17 149.67 1020.32 163.072C1026.73 173.56 1017.99 178.804 1016.25 181.135C1014.85 182.999 1029.76 199.004 1037.39 206.773C1047.16 189.421 1043.84 164.115 1042.33 148.026Z" fill="#FFAAA9"/>
<rect x="718" y="424" width="143" height="8" fill="white"/>
<path d="M1018.76 181.918L1038.97 203.858C1053.22 175.126 1054.08 161.276 1051.19 152.479C1062.29 129.333 1037.73 115.312 1030.39 115.773C1018.44 88.5085 996.15 98.8686 986.501 107.457C975.772 106.435 955.566 110.478 960.578 134.827C964.213 152.48 980.675 158.427 996.293 149.227C1014.26 138.639 1006.01 154.659 1005.36 166.573C1006.95 161.934 1011.24 154.936 1016.36 156.573C1032.39 161.701 1026.48 175.696 1018.76 181.918Z" fill="#01104D"/>
<path d="M964.975 110.627C956.233 122.281 953.32 140.926 970.902 152.707C957.981 147.336 945.745 129.855 964.975 110.627Z" fill="#01104D"/>
<path d="M1031.78 115.409C1039.08 115.896 1054.29 121.763 1056.62 141.338C1057.16 134.217 1052.39 115.815 1031.78 115.409Z" fill="#01104D"/>
<path d="M915.162 431.776C929.74 431.776 961.221 424.194 1065 344.882L1014.86 278.4L969.383 320.972L992.359 238.314L944.062 234.001L880.764 419.529C876.099 434.692 893.457 431.776 915.162 431.776Z" fill="#1576C1"/>
<path d="M1014 278.166L969 321.001L988.409 250.001" stroke="#59A2D9"/>
<path d="M566.178 419.738C568.425 413.503 565.193 406.627 558.958 404.38L413.188 351.835C412.399 351.55 411.632 352.304 411.902 353.098L412.933 356.126L405.674 376.264L402.962 377.921C402.246 378.359 402.355 379.43 403.144 379.715L548.909 432.258C555.144 434.505 562.02 431.273 564.267 425.038L566.178 419.738Z" fill="#1576C1"/>
<path d="M552.739 415.024C554.237 410.868 552.082 406.284 547.926 404.785L412.934 356.125L405.674 376.264L540.667 424.924C544.823 426.422 549.407 424.267 550.906 420.111L552.739 415.024Z" fill="#FFF3D1"/>
<path d="M538.279 409.417L412.577 364.106" stroke="white"/>
<path d="M535.852 416.147L410.151 370.836" stroke="white"/>
<path d="M480.05 414.973C480.05 408.345 474.677 402.973 468.05 402.973H313.076C312.242 402.973 311.774 403.934 312.29 404.59L314.266 407.107V428.514L312.305 430.985C311.786 431.641 312.252 432.607 313.089 432.607H468.05C474.677 432.607 480.05 427.234 480.05 420.607V414.973Z" fill="#F96985"/>
<path d="M465.76 415.105C465.76 410.687 462.178 407.105 457.76 407.105H314.265V428.512H457.76C462.178 428.512 465.76 424.93 465.76 420.512V415.105Z" fill="#FFF3D1"/>
<path d="M450.305 414.723H316.686" stroke="white"/>
<path d="M450.305 421.877H316.686" stroke="white"/>
<path d="M334.346 870.404C321.314 877.624 283.523 882.766 236.609 845.574C255.628 836.592 313.213 803.309 334.346 870.404Z" fill="#955EDB"/>
<path d="M359.699 926.405C358.818 895.763 334.34 836.91 243.471 846.631" stroke="#4A0B9E"/>
<path d="M363.401 924.291C359.526 889.951 358.751 828.456 312.683 808.592" stroke="#4A0B9E"/>
<path d="M230.795 740.443C256.156 771.085 325.364 789.047 339.626 830.783C319.022 830.783 221.814 834.482 230.795 740.443Z" fill="#4A0B9E"/>
<path d="M357.589 790.103C392.456 718.253 287.851 728.291 279.4 679.687C233.063 779.732 331.572 787.936 357.334 790.082L357.589 790.103Z" fill="#955EDB"/>
<path d="M370.269 923.236C367.099 881.147 369.423 794.646 347.023 768.442C319.023 735.687 288.381 754.178 278.872 695.536" stroke="#4A0B9E"/>
<path d="M372.911 710.328C343.502 701.171 301.59 661.407 369.213 575.61C369.213 585.12 424.158 668.592 372.911 710.328Z" fill="#955EDB"/>
<path d="M373.968 925.877C377.138 873.575 382.527 762.842 378.723 738.328C373.968 707.686 358.119 645.875 366.044 585.648" stroke="#4A0B9E"/>
<path d="M382.421 925.875C382.949 869.523 387.387 751.957 400.911 732.515" stroke="#4A0B9E"/>
<path d="M394.573 753.649C401.969 719.133 421.305 646.615 439.479 632.667C439.479 661.724 477.517 731.989 394.573 753.649Z" fill="#4A0B9E"/>
<path d="M403.026 827.612C408.133 802.254 425.955 745.091 456.385 719.309C456.385 773.197 466.423 799.612 403.026 827.612Z" fill="#4A0B9E"/>
<path d="M385.063 923.762C388.761 895.938 398.482 835.112 407.78 814.403" stroke="#4A0B9E"/>
<path d="M388.76 926.935C390.521 916.192 397.529 889.953 411.477 870.934" stroke="#4A0B9E"/>
<path d="M400.914 888.897C402.147 878.859 413.91 853.5 451.103 832.368C448.461 849.802 446.348 894.18 400.914 888.897Z" fill="#4A0B9E"/>
<path d="M407.069 894.517H344.537V938.657C344.537 946.504 280.774 1025.71 317.563 1088.24H421.783C467.149 1042.88 407.069 947.485 407.069 938.657V894.517Z" fill="#FFC20D"/>
<path d="M344.539 903.351H407.071M344.539 913.719H407.071M344.539 924.662H407.071" stroke="#E9AF00"/>
<path d="M407.554 940.753C407.245 939.828 407.078 939.122 407.078 938.657C407.237 939.335 407.396 940.034 407.554 940.753C413.115 957.395 464.769 1045.27 421.792 1088.24H317.572C380.109 1082.11 364.159 1071.08 394.812 1044.1C418.699 1023.08 413.504 967.781 407.554 940.753Z" fill="#E9AF00"/>
<circle cx="912.529" cy="596.003" r="21.5592" fill="#F8D463"/>
<circle cx="985.947" cy="548.223" r="21.5592" fill="#F8D463"/>
<circle cx="1020.91" cy="627.468" r="21.5592" fill="#F8D463"/>
<path d="M1071.6 524.917C1071.6 536.824 1081.25 546.476 1093.16 546.476C1104.84 546.476 1114.35 537.186 1114.71 525.591L1071.93 521.147C1071.71 522.371 1071.6 523.631 1071.6 524.917Z" fill="#F8D463"/>
<circle cx="1130.45" cy="596.003" r="21.5592" fill="#F8D463"/>
<path d="M1087.33 660.681C1075.43 660.681 1065.77 670.333 1065.77 682.24C1065.77 684.049 1066 685.806 1066.42 687.484L1108.15 687.862C1108.64 686.07 1108.89 684.185 1108.89 682.24C1108.89 670.333 1099.24 660.681 1087.33 660.681Z" fill="#F8D463"/>
<path d="M1183.48 545.893C1183.48 557.799 1193.13 567.452 1205.04 567.452C1205.23 567.452 1205.42 567.449 1205.62 567.444L1196.88 534.239L1187.7 533.074C1185.05 536.657 1183.48 541.091 1183.48 545.893Z" fill="#F8D463"/>
<circle cx="1189.89" cy="648.445" r="21.5592" fill="#F8D463"/>
<path d="M857.757 552.301C869.664 552.301 879.317 542.649 879.317 530.742C879.317 522.57 874.77 515.46 868.068 511.803C854.261 515.593 840.277 532.491 837.117 536.989C839.795 545.85 848.023 552.301 857.757 552.301Z" fill="#F8D463"/>
<path d="M870.576 700.303C882.483 700.303 892.135 690.651 892.135 678.744C892.135 666.837 882.483 657.185 870.576 657.185C863.729 657.185 857.627 660.377 853.678 665.354L864.166 699.334C866.191 699.964 868.344 700.303 870.576 700.303Z" fill="#F8D463"/>
<circle cx="964.97" cy="710.209" r="21.5592" fill="#F8D463"/>
<circle cx="931.175" cy="790.619" r="21.5592" fill="#F8D463"/>
<path d="M1009.84 803.438C1009.84 815.345 1019.49 824.997 1031.4 824.997C1036.04 824.997 1040.35 823.526 1043.87 821.024L1031.4 781.879C1019.49 781.879 1009.84 791.531 1009.84 803.438Z" fill="#F8D463"/>
<circle cx="964.97" cy="861.706" r="21.5592" fill="#F8D463"/>
<path d="M1038.39 883.265C1026.48 883.265 1016.83 892.918 1016.83 904.824C1016.83 906.219 1016.96 907.583 1017.21 908.903L1059.93 904.02C1059.51 892.486 1050.03 883.265 1038.39 883.265Z" fill="#F8D463"/>
<circle cx="1052.37" cy="317.483" r="4.74413" stroke="#59A2D9"/>
<circle cx="1050.04" cy="317.482" r="2.91341" fill="#59A2D9"/>
<circle cx="1027.9" cy="286.018" r="4.74413" stroke="#59A2D9"/>
<circle cx="1025.57" cy="286.017" r="2.91341" fill="#59A2D9"/>
<circle cx="1023.24" cy="316.318" r="4.74413" stroke="#59A2D9"/>
<circle cx="1020.91" cy="316.317" r="2.91341" fill="#59A2D9"/>
<circle cx="1031.4" cy="346.617" r="4.74413" stroke="#59A2D9"/>
<circle cx="1029.07" cy="346.617" r="2.91341" fill="#59A2D9"/>
<circle cx="1001.1" cy="337.294" r="4.74413" stroke="#59A2D9"/>
<circle cx="998.766" cy="337.294" r="2.91341" fill="#59A2D9"/>
<circle cx="999.932" cy="305.829" r="4.74413" stroke="#59A2D9"/>
<circle cx="997.601" cy="305.829" r="2.91341" fill="#59A2D9"/>
<circle cx="963.804" cy="336.129" r="4.74413" stroke="#59A2D9"/>
<circle cx="961.474" cy="336.129" r="2.91341" fill="#59A2D9"/>
<circle cx="1010.42" cy="369.924" r="4.74413" stroke="#59A2D9"/>
<circle cx="1008.09" cy="369.925" r="2.91341" fill="#59A2D9"/>
<circle cx="975.459" cy="361.767" r="4.74413" stroke="#59A2D9"/>
<circle cx="973.129" cy="361.766" r="2.91341" fill="#59A2D9"/>
<circle cx="978.955" cy="247.561" r="4.74413" stroke="#59A2D9"/>
<circle cx="976.625" cy="247.56" r="2.91341" fill="#59A2D9"/>
<circle cx="952.152" cy="261.546" r="4.74413" stroke="#59A2D9"/>
<circle cx="949.821" cy="261.545" r="2.91341" fill="#59A2D9"/>
<circle cx="969.632" cy="286.017" r="4.74413" stroke="#59A2D9"/>
<circle cx="967.301" cy="286.017" r="2.91341" fill="#59A2D9"/>
<circle cx="935.836" cy="279.025" r="4.74413" stroke="#59A2D9"/>
<circle cx="933.505" cy="279.025" r="2.91341" fill="#59A2D9"/>
<circle cx="948.656" cy="303.499" r="4.74413" stroke="#59A2D9"/>
<circle cx="946.325" cy="303.498" r="2.91341" fill="#59A2D9"/>
<circle cx="925.348" cy="322.145" r="4.74413" stroke="#59A2D9"/>
<circle cx="923.017" cy="322.145" r="2.91341" fill="#59A2D9"/>
<circle cx="941.664" cy="353.609" r="4.74413" stroke="#59A2D9"/>
<circle cx="939.333" cy="353.61" r="2.91341" fill="#59A2D9"/>
<circle cx="912.53" cy="366.428" r="4.74413" stroke="#59A2D9"/>
<circle cx="910.199" cy="366.429" r="2.91341" fill="#59A2D9"/>
<circle cx="949.82" cy="386.239" r="4.74413" stroke="#59A2D9"/>
<circle cx="947.489" cy="386.239" r="2.91341" fill="#59A2D9"/>
<circle cx="920.688" cy="399.058" r="4.74413" stroke="#59A2D9"/>
<circle cx="918.356" cy="399.059" r="2.91341" fill="#59A2D9"/>
<circle cx="893.883" cy="418.87" r="4.74413" stroke="#59A2D9"/>
<circle cx="891.552" cy="418.871" r="2.91341" fill="#59A2D9"/>
<circle cx="941.664" cy="417.704" r="4.74413" stroke="#59A2D9"/>
<circle cx="939.333" cy="417.704" r="2.91341" fill="#59A2D9"/>
<circle cx="1062.86" cy="287.184" r="4.74413" stroke="#59A2D9"/>
<circle cx="1060.53" cy="287.184" r="2.91341" fill="#59A2D9"/>
<path d="M102 1088H1404" stroke="#4A0B9E"/>
<path d="M308.677 166.13C329.55 190.658 313.994 262.359 327.918 278.721C313.994 262.359 240.728 266.245 219.855 241.717C198.982 217.19 201.945 180.385 226.472 159.513C251 138.64 287.804 141.603 308.677 166.13Z" fill="#FEECB5"/>
<path d="M315.114 273.813C308.897 264.81 291.832 245.085 273.309 238.207C250.156 229.609 276.509 271.335 293.744 248.626C296.279 245.286 286.054 232.325 301.698 237.516C327.903 246.211 303.689 183.681 296.911 212.327C294.263 223.518 314.113 259.887 324.531 268.698" stroke="white"/>
<path d="M284.216 269.29C283.626 268.94 283.556 268.114 284.078 267.669L324.021 233.678C324.543 233.234 325.348 233.435 325.599 234.073L329.602 244.233C329.759 244.63 330.039 244.967 330.401 245.194L334.473 247.748C334.993 248.074 335.335 248.622 335.399 249.233L335.993 254.873C336.047 255.381 336.292 255.849 336.68 256.181L343.732 262.234C344.665 263.035 344.662 264.479 343.726 265.275L312.112 292.171C311.176 292.967 309.75 292.739 309.109 291.69L304.263 283.761C303.997 283.325 303.574 283.008 303.081 282.874L297.61 281.387C297.017 281.226 296.531 280.801 296.292 280.235L294.424 275.808C294.258 275.414 293.97 275.084 293.603 274.866L284.216 269.29Z" fill="#FFDD76"/>
<path d="M295.641 273.949L328.365 246.101" stroke="#FCD04C"/>
<path d="M303.597 283.298L336.321 255.45" stroke="#FCD04C"/>
<path d="M318.569 286.676L337.268 270.763L337.358 270.869C339.505 273.392 339.2 277.179 336.677 279.327L327.116 287.463C324.593 289.61 320.806 289.305 318.658 286.782L318.569 286.676Z" fill="#F8BF12"/>
<path d="M1152.44 170.783L1156.58 178.521L1214.82 137.701L1210 129.253L1152.44 170.783Z" fill="#FEECB5"/>
<path d="M1153.43 172.496L1208.72 133.464" stroke="#FFDF7B"/>
<path d="M1155.4 175.921L1210.69 136.89" stroke="#FFDF7B"/>
<path d="M1214.82 137.7L1210.01 129.253L1207.25 131.244L1212.03 139.657L1214.82 137.7Z" fill="#FFDF7B"/>
<path d="M1152.44 170.782L1156.57 178.52L1147.11 180.116C1146.2 180.269 1145.58 179.214 1146.16 178.498L1152.44 170.782Z" fill="#FFE69D"/>
<path d="M1144.49 180.554L1148.86 179.836L1147.3 177.012L1144.49 180.554Z" fill="#FFDF7B"/>
<path d="M444.267 119.803L437.288 95.1133L374.041 105.695L378.279 134.464L414.17 133.911L444.267 119.803Z" fill="#955EDB"/>
<path d="M374.039 105.695L437.286 95.1133L438.997 101.167L411.271 116.907L375.691 116.907L374.039 105.695Z" fill="#8446D2"/>
<path d="M462.429 84.822L398.906 84.822L341.955 114.486L410.296 114.486L462.429 84.822Z" fill="#4A0B9E"/>
<path d="M379.491 191.674C378.884 185.922 376.136 165.288 374.089 165.339C372.042 165.39 369.968 185.317 369.362 191.674L379.491 191.674Z" fill="#955EDB"/>
<path d="M404.006 97.5342L374.039 114.183L374.039 167.155" stroke="#955EDB"/>
</svg>
