<svg width="122" height="32" viewBox="0 0 122 32" fill="none" xmlns="http://www.w3.org/2000/svg">
<path d="M13.3333 25.3333H5.33333C4.97971 25.3333 4.64057 25.1929 4.39052 24.9428C4.14048 24.6928 4 24.3536 4 24V5.33333C4 4.97971 4.14048 4.64057 4.39052 4.39052C4.64057 4.14048 4.97971 4 5.33333 4H13.3333C14.0406 4 14.7189 4.28095 15.219 4.78105C15.719 5.28115 16 5.95942 16 6.66667C16 5.95942 16.281 5.28115 16.781 4.78105C17.2811 4.28095 17.9594 4 18.6667 4H26.6667C27.0203 4 27.3594 4.14048 27.6095 4.39052C27.8595 4.64057 28 4.97971 28 5.33333V24C28 24.3536 27.8595 24.6928 27.6095 24.9428C27.3594 25.1929 27.0203 25.3333 26.6667 25.3333H18.6667C17.9594 25.3333 17.2811 25.6143 16.781 26.1144C16.281 26.6145 16 27.2928 16 28C16 27.2928 15.719 26.6145 15.219 26.1144C14.7189 25.6143 14.0406 25.3333 13.3333 25.3333Z" stroke="white" stroke-width="2.28571" stroke-linecap="round" stroke-linejoin="round"/>
<path d="M16 6.66663V28" stroke="white" stroke-width="2.28571" stroke-linecap="round" stroke-linejoin="round"/>
<path d="M9.33331 9.33337H10.6666" stroke="white" stroke-width="2.28571" stroke-linecap="round" stroke-linejoin="round"/>
<path d="M9.33331 14.6666H10.6666" stroke="white" stroke-width="2.28571" stroke-linecap="round" stroke-linejoin="round"/>
<path d="M21.3333 9.33337H22.6666" stroke="white" stroke-width="2.28571" stroke-linecap="round" stroke-linejoin="round"/>
<path d="M21.3333 14.6666H22.6666" stroke="white" stroke-width="2.28571" stroke-linecap="round" stroke-linejoin="round"/>
<path d="M21.3333 20H22.6666" stroke="white" stroke-width="2.28571" stroke-linecap="round" stroke-linejoin="round"/>
<path d="M37.5064 23V7.72727H40.2731V14.1928H47.3501V7.72727H50.1243V23H47.3501V16.5121H40.2731V23H37.5064ZM60.3148 18.1825V11.5455H63.0144V23H60.3968V20.9641H60.2775C60.019 21.6055 59.5939 22.13 59.0023 22.5376C58.4157 22.9453 57.6923 23.1491 56.8322 23.1491C56.0815 23.1491 55.4178 22.9826 54.8411 22.6495C54.2694 22.3114 53.8219 21.8217 53.4988 21.1804C53.1756 20.5341 53.014 19.7536 53.014 18.8388V11.5455H55.7136V18.4212C55.7136 19.147 55.9125 19.7237 56.3102 20.1513C56.7079 20.5788 57.2299 20.7926 57.8762 20.7926C58.274 20.7926 58.6593 20.6957 59.0321 20.5018C59.405 20.3079 59.7108 20.0195 59.9494 19.6367C60.193 19.2489 60.3148 18.7642 60.3148 18.1825ZM68.49 16.2884V23H65.7904V11.5455H68.3706V13.4918H68.5049C68.7684 12.8505 69.1885 12.3409 69.7652 11.9631C70.3469 11.5852 71.0653 11.3963 71.9204 11.3963C72.7108 11.3963 73.3994 11.5653 73.9861 11.9034C74.5777 12.2415 75.0351 12.7312 75.3582 13.3725C75.6863 14.0138 75.8479 14.7919 75.843 15.7067V23H73.1434V16.1243C73.1434 15.3587 72.9445 14.7596 72.5468 14.3271C72.154 13.8945 71.6096 13.6783 70.9136 13.6783C70.4413 13.6783 70.0212 13.7827 69.6533 13.9915C69.2904 14.1953 69.0045 14.4911 68.7957 14.8789C68.5919 15.2667 68.49 15.7365 68.49 16.2884ZM84.3071 11.5455V13.6335H77.7222V11.5455H84.3071ZM79.3479 8.80114H82.0475V19.5547C82.0475 19.9176 82.1022 20.196 82.2116 20.3899C82.3259 20.5788 82.4751 20.7081 82.659 20.7777C82.843 20.8473 83.0468 20.8821 83.2705 20.8821C83.4395 20.8821 83.5937 20.8697 83.7329 20.8448C83.877 20.82 83.9864 20.7976 84.061 20.7777L84.5159 22.8881C84.3717 22.9379 84.1654 22.9925 83.8969 23.0522C83.6334 23.1119 83.3103 23.1467 82.9275 23.1566C82.2513 23.1765 81.6423 23.0746 81.1004 22.8509C80.5585 22.6222 80.1285 22.2692 79.8103 21.7919C79.4971 21.3146 79.343 20.718 79.3479 20.0021V8.80114ZM96.7963 11.5455L92.7172 23H89.7342L85.655 11.5455H88.5336L91.166 20.0543H91.2853L93.9252 11.5455H96.7963ZM103.271 23.2237C102.153 23.2237 101.183 22.9776 100.363 22.4854C99.5425 21.9933 98.9062 21.3047 98.4537 20.4197C98.0063 19.5348 97.7826 18.5007 97.7826 17.3175C97.7826 16.1342 98.0063 15.0977 98.4537 14.2077C98.9062 13.3178 99.5425 12.6268 100.363 12.1346C101.183 11.6424 102.153 11.3963 103.271 11.3963C104.39 11.3963 105.359 11.6424 106.18 12.1346C107 12.6268 107.634 13.3178 108.081 14.2077C108.534 15.0977 108.76 16.1342 108.76 17.3175C108.76 18.5007 108.534 19.5348 108.081 20.4197C107.634 21.3047 107 21.9933 106.18 22.4854C105.359 22.9776 104.39 23.2237 103.271 23.2237ZM103.286 21.0611C103.893 21.0611 104.4 20.8945 104.807 20.5614C105.215 20.2234 105.518 19.771 105.717 19.2042C105.921 18.6374 106.023 18.006 106.023 17.31C106.023 16.609 105.921 15.9751 105.717 15.4084C105.518 14.8366 105.215 14.3817 104.807 14.0437C104.4 13.7056 103.893 13.5366 103.286 13.5366C102.665 13.5366 102.148 13.7056 101.735 14.0437C101.327 14.3817 101.022 14.8366 100.818 15.4084C100.619 15.9751 100.519 16.609 100.519 17.31C100.519 18.006 100.619 18.6374 100.818 19.2042C101.022 19.771 101.327 20.2234 101.735 20.5614C102.148 20.8945 102.665 21.0611 103.286 21.0611ZM116.048 23.2237C114.904 23.2237 113.922 22.9727 113.102 22.4705C112.287 21.9684 111.658 21.2749 111.215 20.3899C110.778 19.5 110.559 18.4759 110.559 17.3175C110.559 16.1541 110.783 15.1275 111.23 14.2376C111.678 13.3427 112.309 12.6467 113.124 12.1495C113.945 11.6474 114.914 11.3963 116.033 11.3963C116.962 11.3963 117.785 11.5678 118.501 11.9109C119.222 12.2489 119.796 12.7287 120.224 13.3501C120.651 13.9666 120.895 14.6875 120.955 15.5128H118.374C118.27 14.9609 118.021 14.5011 117.629 14.1332C117.241 13.7603 116.721 13.5739 116.07 13.5739C115.518 13.5739 115.033 13.723 114.616 14.0213C114.198 14.3146 113.873 14.7372 113.639 15.2891C113.41 15.8409 113.296 16.5021 113.296 17.2727C113.296 18.0533 113.41 18.7244 113.639 19.2862C113.868 19.843 114.188 20.2731 114.601 20.5763C115.018 20.8746 115.508 21.0238 116.07 21.0238C116.468 21.0238 116.823 20.9492 117.136 20.8001C117.455 20.646 117.721 20.4247 117.934 20.1364C118.148 19.848 118.295 19.4975 118.374 19.0849H120.955C120.89 19.8952 120.651 20.6136 120.239 21.2401C119.826 21.8615 119.264 22.3487 118.553 22.7017C117.842 23.0497 117.007 23.2237 116.048 23.2237Z" fill="white"/>
</svg>
